<mxfile host="app.diagrams.net" modified="2023-04-17T13:15:34.368Z" agent="5.0 (Windows NT 10.0; Win64; x64) AppleWebKit/537.36 (KHTML, like Gecko) Chrome/112.0.0.0 Safari/537.36" etag="Lp_nmoljIJ5cYEOMrmEq" version="17.4.6" type="github">
  <diagram name="Page-1" id="0783ab3e-0a74-02c8-0abd-f7b4e66b4bec">
    <mxGraphModel dx="1168" dy="1372" grid="1" gridSize="10" guides="1" tooltips="1" connect="1" arrows="1" fold="1" page="1" pageScale="1" pageWidth="850" pageHeight="1100" background="#F2F2F2" math="0" shadow="0">
      <root>
        <mxCell id="0" />
        <mxCell id="1" parent="0" />
        <mxCell id="9qOzzbonZiy3tQvVrjJE-31" value="" style="whiteSpace=wrap;html=1;aspect=fixed;fontSize=16;" parent="1" vertex="1">
          <mxGeometry x="149" y="20" width="980" height="980" as="geometry" />
        </mxCell>
        <mxCell id="9qOzzbonZiy3tQvVrjJE-1" value="" style="whiteSpace=wrap;html=1;aspect=fixed;align=center;flipV=1;flipH=1;" parent="1" vertex="1">
          <mxGeometry x="179" y="100" width="750" height="750" as="geometry" />
        </mxCell>
        <mxCell id="9qOzzbonZiy3tQvVrjJE-2" value="&lt;font style=&quot;font-size: 16px&quot;&gt;Hotel Software&lt;/font&gt;" style="rounded=0;whiteSpace=wrap;html=1;fillColor=default;strokeColor=none;" parent="1" vertex="1">
          <mxGeometry x="550" y="100" width="120" height="60" as="geometry" />
        </mxCell>
        <mxCell id="9qOzzbonZiy3tQvVrjJE-11" value="" style="edgeStyle=orthogonalEdgeStyle;rounded=0;orthogonalLoop=1;jettySize=auto;html=1;fontSize=16;" parent="1" source="9qOzzbonZiy3tQvVrjJE-3" target="9qOzzbonZiy3tQvVrjJE-10" edge="1">
          <mxGeometry relative="1" as="geometry" />
        </mxCell>
        <mxCell id="U_DoTE55FPtf1I-XfE2f-1" style="rounded=0;orthogonalLoop=1;jettySize=auto;html=1;entryX=0;entryY=0.5;entryDx=0;entryDy=0;endArrow=none;endFill=0;" edge="1" parent="1" source="9qOzzbonZiy3tQvVrjJE-3" target="9qOzzbonZiy3tQvVrjJE-22">
          <mxGeometry relative="1" as="geometry" />
        </mxCell>
        <mxCell id="U_DoTE55FPtf1I-XfE2f-6" style="edgeStyle=none;rounded=0;orthogonalLoop=1;jettySize=auto;html=1;entryX=0;entryY=0.5;entryDx=0;entryDy=0;fontSize=14;endArrow=none;endFill=0;" edge="1" parent="1" source="9qOzzbonZiy3tQvVrjJE-3" target="9qOzzbonZiy3tQvVrjJE-23">
          <mxGeometry relative="1" as="geometry" />
        </mxCell>
        <mxCell id="U_DoTE55FPtf1I-XfE2f-7" style="edgeStyle=none;rounded=0;orthogonalLoop=1;jettySize=auto;html=1;entryX=0;entryY=0.5;entryDx=0;entryDy=0;fontSize=14;endArrow=none;endFill=0;" edge="1" parent="1" source="9qOzzbonZiy3tQvVrjJE-3" target="9qOzzbonZiy3tQvVrjJE-24">
          <mxGeometry relative="1" as="geometry" />
        </mxCell>
        <mxCell id="9qOzzbonZiy3tQvVrjJE-3" value="Admin" style="shape=umlActor;verticalLabelPosition=bottom;verticalAlign=top;html=1;outlineConnect=0;fontSize=16;" parent="1" vertex="1">
          <mxGeometry x="60" y="630" width="40" height="80" as="geometry" />
        </mxCell>
        <mxCell id="9qOzzbonZiy3tQvVrjJE-46" style="edgeStyle=none;rounded=0;orthogonalLoop=1;jettySize=auto;html=1;entryX=0;entryY=0.5;entryDx=0;entryDy=0;fontSize=16;endArrow=none;endFill=0;" parent="1" source="9qOzzbonZiy3tQvVrjJE-10" target="9qOzzbonZiy3tQvVrjJE-17" edge="1">
          <mxGeometry relative="1" as="geometry" />
        </mxCell>
        <mxCell id="9qOzzbonZiy3tQvVrjJE-47" style="edgeStyle=none;rounded=0;orthogonalLoop=1;jettySize=auto;html=1;entryX=0;entryY=0.5;entryDx=0;entryDy=0;fontSize=16;endArrow=none;endFill=0;" parent="1" source="9qOzzbonZiy3tQvVrjJE-10" target="9qOzzbonZiy3tQvVrjJE-16" edge="1">
          <mxGeometry relative="1" as="geometry" />
        </mxCell>
        <mxCell id="9qOzzbonZiy3tQvVrjJE-48" style="edgeStyle=none;rounded=0;orthogonalLoop=1;jettySize=auto;html=1;entryX=0;entryY=0.5;entryDx=0;entryDy=0;fontSize=16;endArrow=none;endFill=0;" parent="1" source="9qOzzbonZiy3tQvVrjJE-10" target="9qOzzbonZiy3tQvVrjJE-18" edge="1">
          <mxGeometry relative="1" as="geometry" />
        </mxCell>
        <mxCell id="9qOzzbonZiy3tQvVrjJE-49" style="edgeStyle=none;rounded=0;orthogonalLoop=1;jettySize=auto;html=1;entryX=0;entryY=0.5;entryDx=0;entryDy=0;fontSize=16;endArrow=none;endFill=0;" parent="1" source="9qOzzbonZiy3tQvVrjJE-10" target="9qOzzbonZiy3tQvVrjJE-20" edge="1">
          <mxGeometry relative="1" as="geometry" />
        </mxCell>
        <mxCell id="9qOzzbonZiy3tQvVrjJE-50" style="edgeStyle=none;rounded=0;orthogonalLoop=1;jettySize=auto;html=1;entryX=0.5;entryY=0;entryDx=0;entryDy=0;fontSize=16;endArrow=none;endFill=0;" parent="1" source="9qOzzbonZiy3tQvVrjJE-10" target="9qOzzbonZiy3tQvVrjJE-25" edge="1">
          <mxGeometry relative="1" as="geometry" />
        </mxCell>
        <mxCell id="9qOzzbonZiy3tQvVrjJE-52" style="edgeStyle=none;rounded=0;orthogonalLoop=1;jettySize=auto;html=1;entryX=0.5;entryY=0;entryDx=0;entryDy=0;fontSize=16;endArrow=none;endFill=0;" parent="1" source="9qOzzbonZiy3tQvVrjJE-10" target="9qOzzbonZiy3tQvVrjJE-51" edge="1">
          <mxGeometry relative="1" as="geometry" />
        </mxCell>
        <mxCell id="U_DoTE55FPtf1I-XfE2f-5" style="rounded=0;orthogonalLoop=1;jettySize=auto;html=1;entryX=0;entryY=0.5;entryDx=0;entryDy=0;endArrow=none;endFill=0;" edge="1" parent="1" source="9qOzzbonZiy3tQvVrjJE-10" target="U_DoTE55FPtf1I-XfE2f-4">
          <mxGeometry relative="1" as="geometry" />
        </mxCell>
        <mxCell id="9qOzzbonZiy3tQvVrjJE-10" value="Receptionist" style="shape=umlActor;verticalLabelPosition=bottom;verticalAlign=top;html=1;outlineConnect=0;fontSize=16;" parent="1" vertex="1">
          <mxGeometry x="60" y="230" width="40" height="80" as="geometry" />
        </mxCell>
        <mxCell id="9qOzzbonZiy3tQvVrjJE-16" value="Create Booking" style="ellipse;whiteSpace=wrap;html=1;fontSize=16;" parent="1" vertex="1">
          <mxGeometry x="320" y="230" width="120" height="80" as="geometry" />
        </mxCell>
        <mxCell id="9qOzzbonZiy3tQvVrjJE-17" value="Change Booking" style="ellipse;whiteSpace=wrap;html=1;fontSize=16;" parent="1" vertex="1">
          <mxGeometry x="200" y="110" width="120" height="80" as="geometry" />
        </mxCell>
        <mxCell id="9qOzzbonZiy3tQvVrjJE-18" value="Delete Booking" style="ellipse;whiteSpace=wrap;html=1;fontSize=16;" parent="1" vertex="1">
          <mxGeometry x="320" y="140" width="120" height="80" as="geometry" />
        </mxCell>
        <mxCell id="9qOzzbonZiy3tQvVrjJE-20" value="Check Cleaning Status of a Room" style="ellipse;whiteSpace=wrap;html=1;fontSize=16;" parent="1" vertex="1">
          <mxGeometry x="420" y="395" width="135" height="90" as="geometry" />
        </mxCell>
        <mxCell id="9qOzzbonZiy3tQvVrjJE-22" value="Create Personel" style="ellipse;whiteSpace=wrap;html=1;fontSize=16;" parent="1" vertex="1">
          <mxGeometry x="269" y="590" width="120" height="80" as="geometry" />
        </mxCell>
        <mxCell id="9qOzzbonZiy3tQvVrjJE-23" value="Change Personel" style="ellipse;whiteSpace=wrap;html=1;fontSize=16;" parent="1" vertex="1">
          <mxGeometry x="269" y="670" width="120" height="80" as="geometry" />
        </mxCell>
        <mxCell id="9qOzzbonZiy3tQvVrjJE-24" value="Delete Personel" style="ellipse;whiteSpace=wrap;html=1;fontSize=16;" parent="1" vertex="1">
          <mxGeometry x="269" y="750" width="120" height="80" as="geometry" />
        </mxCell>
        <mxCell id="9qOzzbonZiy3tQvVrjJE-25" value="Search for Free Rooms" style="ellipse;whiteSpace=wrap;html=1;fontSize=16;" parent="1" vertex="1">
          <mxGeometry x="200" y="490" width="120" height="80" as="geometry" />
        </mxCell>
        <mxCell id="9qOzzbonZiy3tQvVrjJE-30" value="Daily room cleaning" style="ellipse;whiteSpace=wrap;html=1;fontSize=16;" parent="1" vertex="1">
          <mxGeometry x="969" y="80" width="120" height="80" as="geometry" />
        </mxCell>
        <mxCell id="9qOzzbonZiy3tQvVrjJE-33" value="Hotel" style="rounded=0;whiteSpace=wrap;html=1;fontSize=16;strokeColor=none;" parent="1" vertex="1">
          <mxGeometry x="550" y="20" width="120" height="60" as="geometry" />
        </mxCell>
        <mxCell id="U_DoTE55FPtf1I-XfE2f-10" style="edgeStyle=none;rounded=0;orthogonalLoop=1;jettySize=auto;html=1;fontSize=14;endArrow=none;endFill=0;" edge="1" parent="1" source="9qOzzbonZiy3tQvVrjJE-34" target="U_DoTE55FPtf1I-XfE2f-8">
          <mxGeometry relative="1" as="geometry" />
        </mxCell>
        <mxCell id="9qOzzbonZiy3tQvVrjJE-34" value="Cleaner" style="shape=umlActor;verticalLabelPosition=bottom;verticalAlign=top;html=1;outlineConnect=0;fontSize=16;" parent="1" vertex="1">
          <mxGeometry x="1210" y="200" width="40" height="80" as="geometry" />
        </mxCell>
        <mxCell id="9qOzzbonZiy3tQvVrjJE-36" value="Final cleaning" style="ellipse;whiteSpace=wrap;html=1;fontSize=16;" parent="1" vertex="1">
          <mxGeometry x="969" y="450" width="120" height="80" as="geometry" />
        </mxCell>
        <mxCell id="9qOzzbonZiy3tQvVrjJE-39" style="edgeStyle=orthogonalEdgeStyle;rounded=0;orthogonalLoop=1;jettySize=auto;html=1;entryX=1;entryY=0.5;entryDx=0;entryDy=0;fontSize=16;dashed=1;" parent="1" source="9qOzzbonZiy3tQvVrjJE-37" target="9qOzzbonZiy3tQvVrjJE-16" edge="1">
          <mxGeometry relative="1" as="geometry" />
        </mxCell>
        <mxCell id="9qOzzbonZiy3tQvVrjJE-40" value="&amp;lt;&amp;lt;extend&amp;gt;&amp;gt;&lt;br&gt;{if email is given}" style="edgeLabel;html=1;align=center;verticalAlign=middle;resizable=0;points=[];fontSize=16;" parent="9qOzzbonZiy3tQvVrjJE-39" vertex="1" connectable="0">
          <mxGeometry x="-0.1479" y="2" relative="1" as="geometry">
            <mxPoint as="offset" />
          </mxGeometry>
        </mxCell>
        <mxCell id="9qOzzbonZiy3tQvVrjJE-37" value="Send confirmation after booking" style="ellipse;whiteSpace=wrap;html=1;fontSize=16;color=pink;fillColor=#f8cecc;strokeColor=#b85450;" parent="1" vertex="1">
          <mxGeometry x="640" y="230" width="120" height="80" as="geometry" />
        </mxCell>
        <mxCell id="9qOzzbonZiy3tQvVrjJE-51" value="See status of rooms" style="ellipse;whiteSpace=wrap;html=1;fontSize=16;" parent="1" vertex="1">
          <mxGeometry x="330" y="485" width="135" height="90" as="geometry" />
        </mxCell>
        <mxCell id="U_DoTE55FPtf1I-XfE2f-4" value="&lt;font style=&quot;font-size: 14px&quot;&gt;Change Cleaning Status of a Room&lt;/font&gt;" style="ellipse;whiteSpace=wrap;html=1;" vertex="1" parent="1">
          <mxGeometry x="420" y="310" width="130" height="80" as="geometry" />
        </mxCell>
        <mxCell id="U_DoTE55FPtf1I-XfE2f-11" value="&amp;lt;&amp;lt;extend&amp;gt;&amp;gt;&lt;br&gt;{if end date of booking for room}&amp;nbsp;" style="rounded=0;orthogonalLoop=1;jettySize=auto;html=1;entryX=0.5;entryY=0;entryDx=0;entryDy=0;fontSize=14;endArrow=classic;endFill=1;dashed=1;" edge="1" parent="1" source="U_DoTE55FPtf1I-XfE2f-8" target="9qOzzbonZiy3tQvVrjJE-36">
          <mxGeometry relative="1" as="geometry" />
        </mxCell>
        <mxCell id="U_DoTE55FPtf1I-XfE2f-12" value="&amp;lt;&amp;lt;extend&amp;gt;&amp;gt;&lt;br&gt;{if not end date of booking for room}" style="edgeStyle=none;rounded=0;orthogonalLoop=1;jettySize=auto;html=1;entryX=0;entryY=0.5;entryDx=0;entryDy=0;dashed=1;fontSize=14;endArrow=classic;endFill=1;" edge="1" parent="1" source="U_DoTE55FPtf1I-XfE2f-8" target="9qOzzbonZiy3tQvVrjJE-30">
          <mxGeometry relative="1" as="geometry" />
        </mxCell>
        <mxCell id="U_DoTE55FPtf1I-XfE2f-8" value="Check which rooms to clean" style="ellipse;whiteSpace=wrap;html=1;fontSize=14;" vertex="1" parent="1">
          <mxGeometry x="790" y="200" width="120" height="80" as="geometry" />
        </mxCell>
      </root>
    </mxGraphModel>
  </diagram>
</mxfile>
